<svg xmlns="http://www.w3.org/2000/svg" style="background: transparent; background-color: transparent; color-scheme: light dark;" xmlns:xlink="http://www.w3.org/1999/xlink" version="1.1" width="381px" height="431px" viewBox="-0.5 -0.5 381 431"><defs/><g><g data-cell-id="0"><g data-cell-id="1"><g data-cell-id="2"><g><rect x="130" y="190" width="120" height="60" rx="9" ry="9" fill="#fff2cc" stroke="#d6b656" pointer-events="all" style="fill: rgb(255, 242, 204); stroke: rgb(214, 182, 86);"/></g></g><g data-cell-id="3"><g><rect x="130" y="190" width="120" height="60" rx="9" ry="9" fill="#fff2cc" stroke="#d6b656" transform="rotate(90,190,220)" pointer-events="all" style="fill: rgb(255, 242, 204); stroke: rgb(214, 182, 86);"/></g></g><g data-cell-id="4"><g><rect x="20" y="190" width="120" height="60" rx="9" ry="9" fill="#fff2cc" stroke="#d6b656" transform="rotate(90,80,220)" pointer-events="all" style="fill: rgb(255, 242, 204); stroke: rgb(214, 182, 86);"/></g></g><g data-cell-id="5"><g><rect x="240" y="190" width="120" height="60" rx="9" ry="9" fill="#dae8fc" stroke="#6c8ebf" transform="rotate(90,300,220)" pointer-events="all" style="fill: rgb(218, 232, 252); stroke: rgb(108, 142, 191);"/></g></g><g data-cell-id="7"><g><rect x="250" y="200" width="120" height="60" rx="9" ry="9" fill="#dae8fc" stroke="#6c8ebf" transform="rotate(90,310,230)" pointer-events="all" style="fill: rgb(218, 232, 252); stroke: rgb(108, 142, 191);"/></g></g><g data-cell-id="8"><g><ellipse cx="70" cy="190" rx="10" ry="10" fill="#e1d5e7" stroke="#9673a6" pointer-events="all" style="fill: rgb(225, 213, 231); stroke: rgb(150, 115, 166);"/></g></g><g data-cell-id="9"><g><ellipse cx="90" cy="220" rx="10" ry="10" fill="#e1d5e7" stroke="#9673a6" pointer-events="all" style="fill: rgb(225, 213, 231); stroke: rgb(150, 115, 166);"/></g></g><g data-cell-id="10"><g><ellipse cx="70" cy="250" rx="10" ry="10" fill="#e1d5e7" stroke="#9673a6" pointer-events="all" style="fill: rgb(225, 213, 231); stroke: rgb(150, 115, 166);"/></g></g><g data-cell-id="11"><g><ellipse cx="310" cy="220" rx="10" ry="10" fill="#e1d5e7" stroke="#9673a6" pointer-events="all" style="fill: rgb(225, 213, 231); stroke: rgb(150, 115, 166);"/></g></g><g data-cell-id="12"><g><rect x="-30" y="30" width="120" height="60" fill="#ffffff" stroke="#000000" transform="rotate(90,30,60)" pointer-events="all" style="fill: rgb(255, 255, 255); stroke: rgb(0, 0, 0);"/></g></g><g data-cell-id="13"><g><rect x="50" y="30" width="120" height="60" fill="#ffffff" stroke="#000000" transform="rotate(90,110,60)" pointer-events="all" style="fill: rgb(255, 255, 255); stroke: rgb(0, 0, 0);"/></g></g><g data-cell-id="14"><g><rect x="130" y="30" width="120" height="60" fill="#ffffff" stroke="#000000" transform="rotate(90,190,60)" pointer-events="all" style="fill: rgb(255, 255, 255); stroke: rgb(0, 0, 0);"/></g></g><g data-cell-id="15"><g><rect x="210" y="30" width="120" height="60" fill="#ffffff" stroke="#000000" transform="rotate(90,270,60)" pointer-events="all" style="fill: rgb(255, 255, 255); stroke: rgb(0, 0, 0);"/></g></g><g data-cell-id="16"><g><rect x="290" y="30" width="120" height="60" fill="#ffffff" stroke="#000000" transform="rotate(90,350,60)" pointer-events="all" style="fill: rgb(255, 255, 255); stroke: rgb(0, 0, 0);"/></g></g><g data-cell-id="17"><g><rect x="-30" y="340" width="120" height="60" fill="#ffffff" stroke="#000000" transform="rotate(90,30,370)" pointer-events="all" style="fill: rgb(255, 255, 255); stroke: rgb(0, 0, 0);"/></g></g><g data-cell-id="18"><g><rect x="50" y="340" width="120" height="60" fill="#ffffff" stroke="#000000" transform="rotate(90,110,370)" pointer-events="all" style="fill: rgb(255, 255, 255); stroke: rgb(0, 0, 0);"/></g></g><g data-cell-id="19"><g><rect x="130" y="340" width="120" height="60" fill="#ffffff" stroke="#000000" transform="rotate(90,190,370)" pointer-events="all" style="fill: rgb(255, 255, 255); stroke: rgb(0, 0, 0);"/></g></g><g data-cell-id="20"><g><rect x="210" y="340" width="120" height="60" fill="#ffffff" stroke="#000000" transform="rotate(90,270,370)" pointer-events="all" style="fill: rgb(255, 255, 255); stroke: rgb(0, 0, 0);"/></g></g><g data-cell-id="21"><g><rect x="290" y="340" width="120" height="60" fill="#ffffff" stroke="#000000" transform="rotate(90,350,370)" pointer-events="all" style="fill: rgb(255, 255, 255); stroke: rgb(0, 0, 0);"/></g></g><g data-cell-id="22"><g><ellipse cx="300" cy="250" rx="10" ry="10" fill="#e1d5e7" stroke="#9673a6" pointer-events="all" style="fill: rgb(225, 213, 231); stroke: rgb(150, 115, 166);"/></g></g></g></g></g></svg>